<?xml version="1.0" encoding="UTF-8" standalone="no"?>
<!DOCTYPE svg PUBLIC "-//W3C//DTD SVG 20010904//EN"
              "http://www.w3.org/TR/2001/REC-SVG-20010904/DTD/svg10.dtd">

<svg xmlns="http://www.w3.org/2000/svg"
     width="1.70667in" height="1.70667in"
     viewBox="0 0 512 512">
  <path id="Selection"
        fill="#353c60" stroke="none" stroke-width="0"
        d="M 0.00,0.00
           C 0.00,0.00 0.00,243.00 0.00,243.00
             0.00,243.00 243.00,243.00 243.00,243.00
             243.00,243.00 243.00,0.00 243.00,0.00
             243.00,0.00 0.00,0.00 0.00,0.00 Z
           M 269.00,0.00
           C 269.00,0.00 269.00,243.00 269.00,243.00
             269.00,243.00 512.00,243.00 512.00,243.00
             512.00,243.00 512.00,0.00 512.00,0.00
             512.00,0.00 269.00,0.00 269.00,0.00 Z
           M 0.00,269.00
           C 0.00,269.00 0.00,512.00 0.00,512.00
             0.00,512.00 243.00,512.00 243.00,512.00
             243.00,512.00 243.00,269.00 243.00,269.00
             243.00,269.00 0.00,269.00 0.00,269.00 Z
           M 269.00,269.00
           C 269.00,269.00 269.00,512.00 269.00,512.00
             269.00,512.00 512.00,512.00 512.00,512.00
             512.00,512.00 512.00,269.00 512.00,269.00
             512.00,269.00 269.00,269.00 269.00,269.00 Z" />
</svg>
